<svg width="330" height="40" viewBox="0 0 330 40" fill="none" xmlns="http://www.w3.org/2000/svg">
<path d="M19.68 39L11.796 24.69H9.582V39H0.348V1.092H15.846C18.834 1.092 21.372 1.614 23.46 2.658C25.584 3.702 27.168 5.142 28.212 6.978C29.256 8.778 29.778 10.794 29.778 13.026C29.778 15.546 29.058 17.796 27.618 19.776C26.214 21.756 24.126 23.16 21.354 23.988L30.102 39H19.68ZM9.582 18.156H15.306C16.998 18.156 18.258 17.742 19.086 16.914C19.95 16.086 20.382 14.916 20.382 13.404C20.382 11.964 19.95 10.83 19.086 10.002C18.258 9.174 16.998 8.76 15.306 8.76H9.582V18.156ZM55.9866 39L48.1026 24.69H45.8886V39H36.6546V1.092H52.1526C55.1406 1.092 57.6786 1.614 59.7666 2.658C61.8906 3.702 63.4746 5.142 64.5186 6.978C65.5626 8.778 66.0846 10.794 66.0846 13.026C66.0846 15.546 65.3646 17.796 63.9246 19.776C62.5206 21.756 60.4326 23.16 57.6606 23.988L66.4086 39H55.9866ZM45.8886 18.156H51.6126C53.3046 18.156 54.5646 17.742 55.3926 16.914C56.2566 16.086 56.6886 14.916 56.6886 13.404C56.6886 11.964 56.2566 10.83 55.3926 10.002C54.5646 9.174 53.3046 8.76 51.6126 8.76H45.8886V18.156ZM72.2051 20.1C72.2051 16.392 73.0151 13.08 74.6351 10.164C76.2551 7.212 78.4691 4.926 81.2771 3.306C84.0851 1.65 87.2171 0.821999 90.6731 0.821999C94.8851 0.821999 98.4851 1.83 101.473 3.846C104.497 5.826 106.693 8.634 108.061 12.27H103.633C102.553 9.714 100.897 7.716 98.6651 6.276C96.4691 4.836 93.8051 4.116 90.6731 4.116C87.9011 4.116 85.3991 4.764 83.1671 6.06C80.9711 7.356 79.2431 9.228 77.9831 11.676C76.7231 14.088 76.0931 16.896 76.0931 20.1C76.0931 23.304 76.7231 26.112 77.9831 28.524C79.2431 30.936 80.9711 32.79 83.1671 34.086C85.3991 35.382 87.9011 36.03 90.6731 36.03C93.8051 36.03 96.4691 35.328 98.6651 33.924C100.897 32.484 102.553 30.504 103.633 27.984H108.061C106.693 31.584 104.497 34.374 101.473 36.354C98.4491 38.334 94.8491 39.324 90.6731 39.324C87.2171 39.324 84.0851 38.514 81.2771 36.894C78.4691 35.238 76.2551 32.952 74.6351 30.036C73.0151 27.12 72.2051 23.808 72.2051 20.1ZM133.629 39.378C130.137 39.378 126.969 38.568 124.125 36.948C121.281 35.292 119.031 33.006 117.375 30.09C115.755 27.138 114.945 23.808 114.945 20.1C114.945 16.392 115.755 13.08 117.375 10.164C119.031 7.212 121.281 4.926 124.125 3.306C126.969 1.65 130.137 0.821999 133.629 0.821999C137.157 0.821999 140.343 1.65 143.187 3.306C146.031 4.926 148.263 7.212 149.883 10.164C151.503 13.08 152.313 16.392 152.313 20.1C152.313 23.808 151.503 27.138 149.883 30.09C148.263 33.006 146.031 35.292 143.187 36.948C140.343 38.568 137.157 39.378 133.629 39.378ZM133.629 36.084C136.437 36.084 138.957 35.436 141.189 34.14C143.421 32.844 145.185 30.99 146.481 28.578C147.777 26.13 148.425 23.304 148.425 20.1C148.425 16.896 147.777 14.088 146.481 11.676C145.185 9.264 143.421 7.41 141.189 6.114C138.957 4.818 136.437 4.17 133.629 4.17C130.821 4.17 128.301 4.818 126.069 6.114C123.837 7.41 122.073 9.264 120.777 11.676C119.481 14.088 118.833 16.896 118.833 20.1C118.833 23.304 119.481 26.13 120.777 28.578C122.073 30.99 123.837 32.844 126.069 34.14C128.301 35.436 130.821 36.084 133.629 36.084ZM188.768 39H184.988L164.09 7.248V39H160.31V1.254H164.09L184.988 32.952V1.254H188.768V39ZM226.867 39H223.087L202.189 7.248V39H198.409V1.254H202.189L223.087 32.952V1.254H226.867V39ZM240.289 4.332V18.426H254.599V21.558H240.289V35.868H256.219V39H236.509V1.2H256.219V4.332H240.289ZM263.019 20.1C263.019 16.392 263.829 13.08 265.449 10.164C267.069 7.212 269.283 4.926 272.091 3.306C274.899 1.65 278.031 0.821999 281.487 0.821999C285.699 0.821999 289.299 1.83 292.287 3.846C295.311 5.826 297.507 8.634 298.875 12.27H294.447C293.367 9.714 291.711 7.716 289.479 6.276C287.283 4.836 284.619 4.116 281.487 4.116C278.715 4.116 276.213 4.764 273.981 6.06C271.785 7.356 270.057 9.228 268.797 11.676C267.537 14.088 266.907 16.896 266.907 20.1C266.907 23.304 267.537 26.112 268.797 28.524C270.057 30.936 271.785 32.79 273.981 34.086C276.213 35.382 278.715 36.03 281.487 36.03C284.619 36.03 287.283 35.328 289.479 33.924C291.711 32.484 293.367 30.504 294.447 27.984H298.875C297.507 31.584 295.311 34.374 292.287 36.354C289.263 38.334 285.663 39.324 281.487 39.324C278.031 39.324 274.899 38.514 272.091 36.894C269.283 35.238 267.069 32.952 265.449 30.036C263.829 27.12 263.019 23.808 263.019 20.1ZM329.573 1.254V4.386H319.097V39H315.317V4.386H304.787V1.254H329.573Z" fill="white"/>
</svg>
